<svg width="60" height="60" viewBox="0 0 142 141" fill="none" xmlns="http://www.w3.org/2000/svg">
     <path d="M40.4724 105.934L35.7596 111.483L34.2824 110.229L39.1594 104.843C38.3856 104.123 37.7994 103.496 37.0491 102.846L38.1277 101.754C39.98 103.496 41.6212 104.842 43.6611 106.468L42.7233 107.652C41.973 107.072 41.1993 106.514 40.4489 105.934M30.9998 92.1414L23.3327 96.5763C23.6141 97.1104 23.8954 97.7373 24.2471 98.2481L31.9143 93.8132C31.5391 93.1398 31.3281 92.7915 30.9998 92.1646M35.9237 99.2001L31.7736 102.753L33.8838 96.6692C33.5087 96.1584 33.3445 95.7868 32.9459 95.2992L25.5132 100.291C25.8415 100.779 26.2635 101.243 26.6152 101.754L31.0936 98.6893L29.0068 104.819C29.3585 105.214 29.7337 105.841 30.2495 106.259L37.1195 100.408C36.7443 100.013 36.2754 99.6413 35.9471 99.2001M46.0058 110.09C47.2016 110.74 48.3974 111.414 49.7105 112.041L50.5077 110.74C48.6788 109.811 46.9671 108.743 45.4196 107.675L40.3786 115.013C42.3012 116.267 44.0363 117.311 46.0058 118.449L46.8265 117.149L42.7467 114.781L44.1301 112.876L46.8265 114.479L47.6237 113.225C46.7561 112.76 45.8651 112.203 44.9038 111.646L46.0293 110.113L46.0058 110.09ZM70.9769 82.7374C64.0131 82.7374 58.3155 77.0718 58.3155 70.1756C58.3155 63.2793 64.0131 57.5905 70.9769 57.5905C77.9406 57.5905 83.6382 63.2329 83.6382 70.1756C83.6382 77.1183 77.964 82.7374 70.9769 82.7374ZM71.1409 78.5811C75.76 78.5811 79.5818 74.8195 79.5818 70.222C79.5818 66.414 76.9089 63.0936 73.2277 62.188C73.1808 61.8165 73.0871 60.075 73.0871 60.075H68.8432C68.8432 60.075 68.7494 61.9558 68.7025 62.3506C65.162 63.4187 62.7938 66.5997 62.7938 70.2452C62.7938 74.8427 66.5922 78.6043 71.1644 78.6043M52.5007 22.7378V22.3199C52.4538 20.0444 54.2123 18.1868 56.5335 18.001C58.972 17.7688 61.1526 19.5335 61.3401 21.9716V22.3199C61.3401 24.5954 59.6051 26.5226 57.2604 26.7316C54.8922 26.9406 52.7117 25.1759 52.5007 22.7146M54.1419 22.5985C54.2591 24.1542 55.666 25.292 57.19 25.1759C58.6907 25.0134 59.8161 23.8292 59.8161 22.3431C59.863 22.2734 59.8161 22.1806 59.8161 22.0877C59.6754 20.5088 58.3155 19.4174 56.7446 19.5567C55.2439 19.6728 54.1185 20.857 54.1654 22.3431V22.5985H54.1419ZM72.5947 24.7579C71.8444 24.7579 71.5161 24.7579 70.7658 24.7579L72.9698 20.2069L74.9863 16.0738L76.9793 16.2828L78.0343 20.2069L79.488 25.4778C78.8315 25.3617 78.2922 25.2456 77.6592 25.2223L77.1433 23.5737C75.8303 23.3648 74.6345 23.3183 73.4153 23.2487L72.5947 24.7579ZM74.0718 21.7626C75.0331 21.8091 75.9476 21.9252 76.8386 22.0412L76.3696 20.2069L75.76 18.3029L74.869 20.2069L74.0718 21.7626ZM65.2323 17.8617L66.006 25.0598L67.9053 24.8508L67.155 17.7224L70.0389 17.5366L69.9217 15.9345C66.7095 16.1202 65.373 16.2363 62.1843 16.7239L62.3953 18.2564L65.2089 17.8849L65.2323 17.8617ZM65.5371 115.198L64.8806 120.562L62.278 114.688C61.6684 114.572 61.2932 114.409 60.6836 114.316L58.6437 123C59.2768 123.163 59.8864 123.232 60.5429 123.349L61.645 118.008L64.2945 123.952C64.9041 124.045 65.5606 124.231 66.264 124.208L67.2488 115.245C66.733 115.222 66.1233 115.291 65.584 115.198M117.003 96.5531L110.485 93.0005L109.641 94.4865L117.449 98.8054L120.45 93.4649L119.113 92.7451L116.98 96.5531H117.003ZM107.202 97.8534L116.065 100.733C115.854 100.988 115.69 101.243 115.503 101.499C115.338 101.708 115.174 101.894 115.034 102.149L113.486 101.592L111.071 104.587L111.962 105.957C111.61 106.375 111.188 106.816 110.743 107.257L107.226 101.499L105.936 99.3859L107.226 97.8534H107.202ZM108.211 99.8735L109.266 101.522L110.227 103.171L111.517 101.522L111.845 101.104L108.187 99.8735H108.211ZM98.8787 111.599C99.2538 112.25 99.4414 113.016 99.4648 113.805C99.4648 114.409 99.3242 115.036 99.0897 115.593C98.6676 116.406 98.0581 117.149 97.214 117.637C95.1272 118.844 92.4308 118.124 91.1881 116.011C91.1412 115.895 91.0943 115.756 91.0005 115.616C90.7426 115.059 90.6253 114.432 90.5784 113.829C90.6253 112.273 91.3991 110.833 92.8059 110.02C94.9162 108.836 97.6595 109.533 98.9021 111.646M97.8939 113.805C97.8939 113.271 97.7532 112.807 97.4953 112.342C96.745 110.972 95.0099 110.531 93.65 111.321C92.6887 111.832 92.1963 112.807 92.1963 113.805C92.2197 114.27 92.337 114.781 92.6183 115.198C92.6887 115.338 92.7825 115.477 92.9231 115.616C93.7672 116.638 95.2913 116.87 96.4636 116.197C96.7919 116.034 97.0263 115.825 97.2374 115.616C97.6594 115.106 97.9173 114.432 97.9173 113.782M102.161 103.31L105.842 107.257L99.6524 105.446C99.1366 105.841 98.7849 105.957 98.3394 106.352L103.732 113.527C104.201 113.178 104.67 112.737 105.092 112.389L101.833 108.07L108.093 109.928C108.515 109.556 109.125 109.138 109.57 108.627L103.334 102.103C103.005 102.451 102.607 102.938 102.185 103.333M141.81 70.222C141.81 71.0347 141.763 71.8706 141.669 72.5208V72.7065L141.458 72.7994C138.457 74.5641 134.565 75.5857 130.673 75.6786C130.579 76.1662 130.157 79.6492 130.087 80.1368C133.721 81.1817 137.238 83.1321 139.7 85.6631L139.794 85.8256V85.9881C139.606 87.3581 139.114 89.1925 138.574 90.3999L138.504 90.5856H138.34C134.94 91.5841 130.907 91.5609 127.203 90.6321C127.015 91.0965 125.655 94.324 125.514 94.8116C128.773 96.8549 131.657 99.6645 133.275 102.637L133.369 102.799L133.322 102.985C132.806 104.169 131.868 105.887 131.001 106.932L130.907 107.095H130.696C127.203 107.141 123.334 106.12 119.934 104.239C119.629 104.634 117.355 107.606 117.05 108C119.723 110.717 121.739 114.177 122.583 117.59L122.63 117.776L122.537 117.892C121.763 118.937 120.333 120.33 119.301 121.143L119.184 121.259L118.926 121.212C115.573 120.33 112.032 118.31 109.289 115.686C108.891 115.988 106.077 118.171 105.655 118.472C107.46 121.723 108.539 125.485 108.539 128.875V129.339L108.328 129.455C107.296 130.291 105.561 131.266 104.342 131.777L104.225 131.824L104.014 131.754C100.989 130.013 98.1049 127.18 96.1354 123.929C95.6664 124.138 92.2432 125.578 91.7743 125.787C92.2432 127.598 92.5246 129.502 92.5714 131.359C92.5714 133.24 92.2432 135.144 91.7743 136.839V137.002L91.5632 137.095C90.4143 137.559 88.4917 138.047 87.1552 138.279H86.9442L86.8269 138.163C84.2243 135.725 82.2548 132.242 81.1997 128.596C80.7307 128.619 77.1903 129.107 76.6979 129.2C76.6276 133.008 75.5724 136.886 73.7436 139.881L73.6498 140.043H73.4387C72.2195 140.252 70.25 140.252 68.89 140.067H68.7259L68.6087 139.881C66.8267 136.886 65.7716 133.031 65.6778 129.2C65.1385 129.153 61.4105 128.619 60.8946 128.596C59.8864 132.218 57.87 135.655 55.3377 138.139L55.197 138.256H54.986C53.6027 138.023 51.7738 137.489 50.5545 137.002L50.4139 136.932L50.3435 136.77C49.8277 135.074 49.5698 133.147 49.5698 131.266C49.5698 129.386 49.8277 127.551 50.3201 125.74C49.8512 125.531 46.6155 124.231 46.1466 124.045C44.1536 127.342 41.2696 130.222 38.2215 131.893L38.0574 131.986L37.8698 131.94C36.6036 131.383 34.9389 130.431 33.8838 129.641L33.7431 129.502V129.13C33.7431 125.694 34.7982 121.909 36.6037 118.612C36.2051 118.31 33.2038 116.034 32.7818 115.733C30.0151 118.356 26.5215 120.353 23.1217 121.212L22.9575 121.259L22.7699 121.143C21.7383 120.307 20.4018 118.983 19.5577 117.938L19.4405 117.753L19.4874 117.567C20.4018 114.177 22.4182 110.717 25.0677 108.024C24.7629 107.606 22.4886 104.703 22.1603 104.262C18.8074 106.12 14.8918 107.211 11.3982 107.118H11.2106L11.0934 107.002C10.2727 105.934 9.31141 104.239 8.77213 103.031L8.7018 102.846L8.77213 102.683C10.5307 99.6413 13.3912 96.8317 16.6503 94.9045C16.4393 94.4169 15.0559 91.1429 14.798 90.6785C11.0699 91.5841 7.03706 91.6305 3.63725 90.6785L3.47314 90.6321L3.37933 90.4695C2.9104 89.3318 2.41801 87.4278 2.20699 86.081L2.16012 85.872L2.27733 85.7095C4.73925 83.2018 8.23287 81.2281 11.9375 80.1368C11.8906 79.626 11.3513 75.9108 11.3044 75.4C7.41222 75.3536 3.52004 74.3551 0.471939 72.5672L0.307794 72.4743V72.2653C0.214006 71.6384 0.190552 70.8257 0.190552 69.9898C0.190552 69.1539 0.214006 68.3877 0.307794 67.7143V67.5053L0.471939 67.4124C3.49659 65.6477 7.41222 64.6029 11.3044 64.5564C11.3747 64.0456 11.8437 60.4465 11.914 59.9589C8.23285 58.914 4.71583 56.9172 2.23046 54.4327L2.13665 54.3166V54.1308C2.32423 52.7376 2.8635 50.88 3.37933 49.7423L3.42624 49.5797L3.61382 49.5333C6.96673 48.5581 11.023 48.5813 14.7745 49.4869C14.9856 49.0457 16.3455 45.7717 16.5565 45.2841C13.2505 43.3104 10.3665 40.5009 8.65489 37.4591L8.56112 37.2733L8.65489 37.0876C9.19417 35.8802 10.1789 34.2316 10.9292 33.1867L11.0465 33.0241H11.2575C14.7745 32.9777 18.6668 34.0458 22.0197 35.8802C22.3245 35.5086 24.6223 32.4436 24.9271 32.0489C22.2776 29.309 20.2611 25.8725 19.3936 22.4592L19.3467 22.3199L19.4171 22.1806C20.2611 21.1125 21.6914 19.7425 22.723 18.953L22.8872 18.8602H23.0513C26.5214 19.7657 30.015 21.8091 32.7349 24.4329C33.1335 24.131 35.8533 22.0412 36.2519 21.7394C34.3762 18.4886 33.3211 14.7038 33.3211 11.337V10.8262L33.4852 10.7101C34.4934 9.92059 36.2285 8.94537 37.4712 8.43454L37.6119 8.34166L37.8229 8.43454C40.8475 10.1296 43.7081 12.9856 45.7011 16.2363C46.17 16.0506 49.7105 14.5413 50.2028 14.3323C49.7339 12.5212 49.4525 10.6404 49.476 8.78283C49.476 6.8556 49.7105 4.99803 50.2263 3.30299V3.09402L50.4373 3.04758C51.5862 2.58318 53.4854 2.07235 54.8219 1.86338H55.0329L55.197 1.97948C57.7293 4.41754 59.7223 7.90048 60.8009 11.5692C61.3167 11.5227 65.0448 11.0584 65.5371 10.9655C65.6075 7.18067 66.6626 3.32621 68.4915 0.33088L68.5618 0.168342L68.7494 0.121903C70.0858 -0.0406344 72.0554 -0.0406344 73.3449 0.121903L73.5091 0.168342L73.6263 0.33088C75.4552 3.32621 76.5103 7.2039 76.5103 10.9423C77.073 11.0584 80.7073 11.5227 81.2231 11.5924C82.3017 7.9237 84.3181 4.46398 86.8504 2.02591L86.9676 1.90982L87.1317 1.95626C88.5151 2.11879 90.3909 2.60641 91.5866 3.14046L91.7273 3.21012L91.7977 3.41909C92.3135 5.11413 92.5714 6.94848 92.5714 8.85249C92.548 10.7333 92.2666 12.6373 91.7977 14.4484C92.2666 14.6342 95.7836 16.097 96.276 16.306C98.2456 13.0552 101.059 10.2224 104.107 8.5042L104.295 8.41132L104.482 8.5042C105.702 9.01503 107.39 9.99025 108.445 10.8029L108.609 10.8958V11.3602C108.609 14.7967 107.531 18.5815 105.702 21.7858C106.1 22.0877 109.008 24.34 109.453 24.6883C112.197 22.0412 115.69 20.0211 119.137 19.1852L119.301 19.0924L119.442 19.2549C120.473 20.0211 121.88 21.4608 122.677 22.4824L122.818 22.645L122.748 22.8307C121.88 26.244 119.793 29.7037 117.167 32.3972C117.472 32.8152 119.676 35.6712 120.004 36.0891C123.428 34.2548 127.296 33.2099 130.813 33.2796H130.978L131.095 33.4421C131.939 34.5334 132.924 36.2052 133.393 37.343L133.51 37.5752L133.393 37.7377C131.657 40.7563 128.774 43.5426 125.491 45.5163C125.702 46.0039 127.038 49.2779 127.273 49.7423C130.954 48.8135 135.01 48.8135 138.363 49.7423L138.574 49.7887L138.645 49.9745C139.114 51.1355 139.653 53.0163 139.84 54.3862V54.5488L139.723 54.6881C137.261 57.219 133.744 59.1927 130.063 60.2376C130.133 60.7484 130.602 64.301 130.673 64.8118C134.565 64.9047 138.434 65.9264 141.435 67.6911L141.622 67.8072V67.9929C141.74 68.6431 141.787 69.4325 141.787 70.2684M35.4547 29.3322L41.2696 35.7408C42.0902 36.6 42.9812 36.5071 44.1536 35.6015C51.4925 29.8895 60.9181 26.5226 70.9769 26.5226C81.0356 26.5226 90.4612 29.8895 97.8939 35.6015C99.0428 36.4606 99.9338 36.6232 100.778 35.7408L106.593 29.3322C107.249 28.6124 107.249 27.6372 105.983 26.5923C96.2292 19.0691 84.2009 14.4252 70.9534 14.4252C57.7059 14.4252 45.5838 19.0691 36.0175 26.6155C34.7748 27.6372 34.8217 28.6124 35.4782 29.309M35.8533 56.3134C35.2203 55.8955 34.5403 55.4311 33.9776 55.6865C33.5321 55.8258 33.1804 56.2902 32.9459 57.0565C30.2261 66.3211 30.2261 74.1694 32.9459 83.3179C33.1335 83.9216 33.3445 84.5021 33.8838 84.6646C34.3293 84.8504 34.9858 84.6646 35.8533 84.0841L53.8606 71.9403C54.5405 71.4991 54.9392 70.8722 54.9392 70.222C54.9392 69.5254 54.5405 68.9217 53.8606 68.4573L35.8533 56.3134ZM39.7924 45.6788C39.8862 46.329 40.6131 46.6541 41.2696 46.9559L60.8946 56.3831C61.6684 56.7546 62.3953 56.7546 62.9814 56.4528C63.5442 56.1045 63.8959 55.4775 63.9428 54.6416L65.5371 33.0938C65.6309 32.0489 65.4668 31.4452 65.0917 31.1201C64.6696 30.7718 64.06 30.8647 63.4738 30.9808C54.0716 33.2099 47.2251 37.1572 40.4724 44.1231C39.9331 44.7268 39.6752 45.2377 39.7924 45.6556M40.0738 94.9509C40.0738 95.3224 40.3317 95.7868 40.8006 96.2744C47.5534 103.31 54.3999 107.234 63.7786 109.417C64.3882 109.603 64.9744 109.695 65.3965 109.37C65.8185 109.068 65.9357 108.418 65.8654 107.397C65.8654 107.373 64.271 85.8024 64.271 85.8024C64.2007 84.9897 63.8958 84.3628 63.3097 84.0377C62.7235 83.6894 61.9967 83.6894 61.2229 84.0377L41.6213 93.4881C40.9413 93.8132 40.191 94.1615 40.0972 94.7884C40.0972 94.8348 40.0972 94.9045 40.0972 94.9742M70.9769 84.0841C78.7378 84.0841 85.045 77.8381 85.045 70.1756C85.045 62.5131 78.7378 56.2438 70.9769 56.2206C63.2159 56.2206 56.9321 62.4899 56.9321 70.1756C56.9321 77.8613 63.2394 84.0841 70.9769 84.0841ZM76.9323 109.045C77.2606 109.301 77.7999 109.37 78.644 109.161C88.0227 106.932 94.8927 103.008 101.575 96.0423C101.974 95.5779 102.419 95.1135 102.278 94.5794C102.161 94.0686 101.716 93.6274 100.801 93.1862L81.1528 83.7358C80.4025 83.3876 79.6756 83.3875 79.0895 83.6894C78.5033 84.0609 78.1516 84.6646 78.1047 85.5237L76.5103 107.048C76.5103 107.745 76.4165 108.558 76.9089 108.999M106.218 83.9448C106.804 84.3163 107.484 84.7807 108.093 84.5717C108.515 84.4556 108.867 83.9913 109.101 83.1786C111.845 73.9372 111.845 66.0657 109.101 56.9404C108.937 56.3599 108.656 55.7794 108.187 55.5704C107.695 55.4079 107.085 55.5936 106.194 56.1973L88.1869 68.318C87.4835 68.7824 87.1317 69.4093 87.1317 70.0595C87.1317 70.7096 87.4835 71.3366 88.1869 71.8009L106.218 83.9448ZM102.255 45.3306C102.278 44.959 102.044 44.4946 101.528 43.9838C94.8458 36.9715 87.9759 33.0474 78.5268 30.8415C77.9875 30.7022 77.3779 30.5861 76.9793 30.9344C76.5572 31.2594 76.44 31.9096 76.5103 32.8848L78.0578 54.4791C78.1047 55.2918 78.4799 55.9419 79.0426 56.267C79.6522 56.6153 80.379 56.5456 81.1293 56.1741L100.778 46.7934C101.411 46.4915 102.114 46.1665 102.255 45.4931C102.255 45.4467 102.278 45.4002 102.255 45.3073M18.3854 83.8752L26.7559 81.4603C27.5297 81.2281 28.1862 80.4154 28.1158 79.417C25.1146 63.9991 28.9365 51.507 38.0574 41.4761C38.9718 40.8259 39.089 39.4792 38.198 38.5736L32.1253 32.5365C31.5391 31.8632 30.4605 31.8632 29.5461 32.7919C17.893 44.9358 12.0078 63.558 16.322 82.5981C16.5565 83.5036 17.2834 84.177 18.3854 83.8752ZM122.302 88.3101L113.932 85.4773C113.486 85.3148 112.361 85.3148 111.751 86.7776C104.975 102.846 89.242 113.852 71.0002 113.852C52.7585 113.852 36.6974 102.59 30.2261 86.5222C29.7337 85.3148 28.5613 85.3148 28.1158 85.4773L19.7922 88.3101C18.8778 88.6352 18.3385 89.4247 18.8074 90.5856C26.9904 111.274 47.3423 125.879 71.0002 125.879C94.6582 125.879 115.104 111.181 123.31 90.4928C123.732 89.4014 123.217 88.6352 122.326 88.3101M112.619 32.6991C111.798 31.7006 110.438 31.8632 110.039 32.5365L103.99 38.5504C103.099 39.456 103.193 40.8027 104.107 41.4529C113.252 51.4838 117.073 63.9527 114.072 79.3938C114.002 80.4154 114.658 81.2281 115.456 81.4371L123.826 83.8519C124.952 84.177 125.655 83.5036 125.89 82.5516C130.204 63.5347 124.295 44.8429 112.619 32.6758M93.1108 30.47L95.0333 26.8013L100.239 24.4097C99.6993 24.0149 99.0897 23.7595 98.5504 23.388L94.963 25.0134L94.3065 21.1589C93.5562 20.8106 93.1107 20.6481 92.337 20.3462L93.3686 25.9421L91.446 29.5644L93.1108 30.47ZM83.3568 113.852C80.7542 114.409 78.7612 114.873 76.1821 115.268L76.4165 116.754C77.3778 116.615 78.2454 116.499 79.2536 116.359L80.5432 123.488L82.4658 123.14L80.9183 116.034C81.9031 115.802 82.8175 115.547 83.7789 115.315L83.3568 113.852ZM57.87 115.106V115.593C57.7293 116.777 56.9321 117.962 55.6191 118.124L55.9239 122.234C55.3143 122.095 54.6343 121.909 53.9778 121.63L53.9075 117.753L52.149 117.01L50.7187 120.423C50.1325 120.237 49.5698 120.051 49.007 119.773L50.8125 115.616L51.0235 115.106L52.5007 111.669L56.4866 113.202C57.3776 113.503 57.7762 114.293 57.8466 115.106M56.2052 115.106C56.1584 114.85 56.0412 114.664 55.7364 114.525L53.5089 113.712L52.993 115.106L52.8055 115.616L54.8454 116.406C55.4081 116.661 55.9473 116.15 56.1349 115.616C56.2053 115.477 56.2521 115.291 56.2052 115.106ZM83.3099 26.3833C82.6065 26.1743 82.0672 26.0815 81.27 25.8725L82.7237 20.9731L83.7789 17.4902C85.3029 17.8617 86.7566 18.3493 88.2103 18.8137C89.0309 19.0691 89.4764 19.9747 89.5468 20.9731C89.5937 22.2967 88.9372 23.7595 87.5772 24.0614L88.1165 28.0087C87.4835 27.7533 87.0145 27.5443 86.3111 27.2657L85.8422 23.8292L84.1305 23.3183L83.3099 26.3833ZM84.5292 21.7626L86.5221 22.3895C87.0614 22.5521 87.7883 21.693 87.7883 20.9499C87.7883 20.6016 87.6711 20.2766 87.1787 20.1837C86.4518 19.905 85.9359 19.7657 85.1387 19.58L84.7167 20.9499L84.5057 21.7394L84.5292 21.7626ZM74.8456 119.308L76.7682 123.952C76.1352 123.975 75.549 124.045 74.9863 124.115L74.4001 122.606L70.5314 122.722L70.0859 124.277C69.4762 124.231 68.89 124.208 68.2804 124.208L69.9452 119.308L71.1409 115.593L71.1879 115.477L73.1574 115.384L73.2512 115.616L74.8221 119.308H74.8456ZM73.6732 120.98L72.9933 119.285L72.2899 117.451L71.6802 119.285L71.0941 121.073L73.6967 120.957L73.6732 120.98ZM85.467 113.109L88.4214 121.445C88.9841 121.236 89.6171 121.073 90.2033 120.818L87.3428 112.505C86.569 112.76 86.1939 112.876 85.4905 113.085M42.6529 25.1062L42.1606 24.2239C43.4501 23.4112 44.857 22.6914 46.1934 21.9948C47.7878 21.1357 50.0153 23.2254 49.8512 25.1062C49.8277 25.4313 49.7339 25.7332 49.5229 26.035L52.7585 28.3802C52.1489 28.6588 51.68 28.9143 50.9532 29.2161L48.1161 27.1728L46.5451 28.0087L48.2098 30.7486C47.5533 31.1666 47.1782 31.3988 46.4279 31.8399L42.6295 25.1295L42.6529 25.1062ZM44.5991 24.7115L44.8335 25.1295L45.7245 26.6852L47.6003 25.71C47.7644 25.6171 47.8816 25.4081 47.9051 25.1295C47.952 24.2936 47.3189 23.1558 46.4513 23.6898C45.7714 24.0381 45.3493 24.2936 44.5756 24.7115" fill="white"/>
</svg>
                  