<svg width="60" height="60" viewBox="0 0 141 139" fill="none" xmlns="http://www.w3.org/2000/svg">
    <path fill-rule="evenodd" clip-rule="evenodd" d="M140.616 69.1116C140.188 67.7543 136.422 65.2169 134.911 65.3054C125.262 65.8955 115.652 66.5348 106.012 67.1151L105.793 67.1446C105.763 66.3676 105.664 65.6005 105.575 64.8333L105.773 64.8235L122.847 62.6401C126.226 62.1877 129.624 61.7058 133.182 61.2141C131.513 58.3619 129.624 57.5849 126.573 58.3029C119.647 59.9355 112.611 61.1157 105.644 62.5614L105.227 62.6401C104.344 58.0993 102.546 53.7811 99.9398 49.9431C100.192 49.753 100.476 49.5563 100.794 49.353C106.757 45.5173 112.66 41.544 118.593 37.6198C121.416 35.761 121.694 34.9349 120.551 31.4434C113.283 36.9773 106.025 42.475 98.7771 47.9368L98.5982 48.104L97.1472 46.3632C97.2135 46.2976 97.2897 46.2353 97.3758 46.1763C104.462 39.9605 111.607 33.7842 118.713 27.5783C120.193 26.2997 121.108 22.4345 120.323 20.7724C120.182 20.4812 119.943 20.248 119.647 20.1135C117.927 19.3365 114.091 20.2413 112.77 21.7166C106.499 28.7683 100.288 35.8495 93.987 42.8619C93.9207 42.934 93.8644 43.0061 93.818 43.0782C93.2317 42.5865 92.6752 42.1144 92.0491 41.6522C92.1153 41.5932 92.175 41.5309 92.228 41.4653C97.3361 34.8299 102.461 28.1979 107.602 21.5691C108.049 20.9986 108.755 20.5265 108.685 19.6217C104.472 19.0906 104.472 19.0906 102.325 22.287C98.2636 28.2929 94.2156 34.3054 90.1807 40.3245C86.2999 37.7685 81.9517 35.9878 77.3807 35.0824L77.4006 34.9742C78.8515 27.9913 80.054 20.9396 81.7434 14.0059C82.4689 10.9669 81.7633 9.08839 78.772 7.38694C77.5496 16.563 76.377 25.5129 75.1446 34.4431L75.1347 34.7185C74.386 34.6201 73.6274 34.5447 72.8589 34.4923C72.8788 34.4398 72.8854 34.3808 72.8788 34.3152C73.4949 24.7818 74.1012 15.2484 74.6974 5.71498C74.8068 4.15121 72.3223 0.522083 70.8813 0.0500016C70.6475 -0.0166672 70.3995 -0.0166672 70.1657 0.0500016C68.6154 0.581093 66.2104 4.22007 66.3297 5.9707C66.9359 15.3336 67.5918 24.6966 68.198 34.0497C68.198 34.1874 68.2212 34.3316 68.2676 34.4824C67.4708 34.5389 66.6756 34.6143 65.8825 34.7086L65.8626 34.4333C64.7628 26.1522 63.6763 17.8744 62.603 9.59982C62.5036 8.91137 62.6825 8.06555 61.8576 7.59347C58.6477 10.2096 58.6576 10.2096 59.4029 13.7994C60.7943 20.7232 62.1259 27.6373 63.5669 34.5414L63.6763 35.0725C59.0154 35.9577 54.6824 37.787 50.8762 40.3146L50.3097 39.518C46.4836 33.6661 42.5283 27.9028 38.6128 22.11C36.4264 18.8644 36.2475 18.8054 32.1929 19.8184C32.7162 20.5462 33.2264 21.2445 33.7233 21.9133C38.7916 28.4929 43.9196 35.0627 48.988 41.6817C48.3983 42.1472 47.8087 42.6324 47.219 43.1373L46.1855 41.9767L28.1481 21.5887C26.9655 20.2413 22.9804 19.3857 21.44 20.1331C21.1443 20.2812 20.9117 20.5288 20.7841 20.8314C19.9692 22.6411 20.9729 26.4472 22.563 27.834C29.6189 33.9612 36.7047 40.0884 43.7308 46.2451C43.7971 46.2976 43.8666 46.3435 43.9395 46.3828C43.4294 46.9467 42.949 47.527 42.4985 48.1236L42.2699 47.9368C35.5618 42.9012 28.8636 37.7969 22.1953 32.7416C21.6288 32.2991 21.1518 31.5418 20.2474 31.6893C19.4623 34.5316 20.2773 36.4199 22.9307 38.0427C29.132 41.8489 35.0947 46.0189 41.1668 49.9726C38.6227 53.7394 36.7941 58.0373 35.8997 62.6598L35.7208 62.6106L14.2847 58.3029C10.7567 57.6046 9.99149 57.939 8.09334 61.1944C8.72937 61.3419 9.29583 61.5091 9.88217 61.5878C18.2499 62.6598 26.6375 63.722 34.9655 64.8333L35.532 64.8432C35.426 65.6005 35.3497 66.3617 35.3034 67.1249C35.1643 67.0921 35.0152 67.0724 34.8562 67.0659C25.3257 66.5053 15.7555 65.8759 6.22501 65.3153C4.60512 65.2169 0.938022 67.7052 0.480877 69.0919C0.429289 69.326 0.436114 69.5691 0.500756 69.8C1.0374 71.3146 4.76413 73.6947 6.50327 73.5767C15.9443 72.9669 25.3953 72.3178 34.8761 71.7277C35.0086 71.7277 35.1477 71.708 35.2935 71.6687C35.3465 72.4555 35.4227 73.239 35.5221 74.0192L35.2637 74.0389C29.291 74.8356 23.3481 75.4945 17.3853 76.3305C14.2747 76.7632 11.1045 76.8714 7.97409 77.8254C10.6971 81.1988 10.6971 81.189 14.5331 80.4219C21.44 79.0548 28.3469 77.7172 35.2239 76.3207L35.8898 76.2026C36.7816 80.7456 38.5899 85.064 41.2066 88.8996C41.1204 88.9652 41.031 89.021 40.9382 89.0669C34.8761 92.9419 29.0127 97.1119 22.8512 100.859C20.158 102.492 19.5021 104.4 20.2574 107.203C21.3207 107.134 21.8375 106.396 22.4934 105.875C29.132 100.879 35.7705 95.8334 42.3693 90.8568L42.4985 90.7191C42.9623 91.3224 43.4426 91.9026 43.9395 92.4599L43.8302 92.5485C36.6451 98.833 29.45 105.049 22.2549 111.294C20.9232 112.445 20.0089 116.782 20.8437 118.169C21.025 118.444 21.2999 118.647 21.6189 118.739C23.6363 119.477 26.9357 118.611 28.4164 116.959C34.6773 109.888 40.9084 102.836 47.2091 95.8137C47.2091 95.7809 47.229 95.7547 47.2687 95.735C47.8252 96.2267 48.4016 96.7054 48.9979 97.1709L48.8787 97.2791C43.86 103.888 38.732 110.419 33.6835 116.949C33.1568 117.638 32.2227 118.198 32.4015 119.201C35.5718 120.224 37.3805 118.837 38.9904 116.241C42.7966 110.281 46.901 104.508 50.7967 98.5872L50.8762 98.4691C54.6824 100.987 59.0154 102.806 63.6763 103.711L63.5669 104.311C62.116 111.206 60.7744 118.139 59.3831 125.034C58.6278 128.82 58.757 129.164 62.2849 131.279L64.2129 116.91C64.7694 112.628 65.3326 108.35 65.9024 104.075C66.6841 104.18 67.4593 104.252 68.2278 104.291C68.208 104.803 68.1649 105.318 68.0986 105.836L66.3297 132.882C66.2005 134.544 68.7744 138.34 70.2353 138.763C70.4715 138.809 70.7158 138.789 70.9409 138.704C72.6303 138.075 74.8068 134.613 74.6875 132.734L72.8589 104.4V104.282C73.6142 104.236 74.3728 104.167 75.1347 104.075L75.1446 104.232C75.7012 108.422 76.2179 112.592 76.7943 116.772L78.7919 131.367C82.4391 128.81 82.459 128.712 81.6937 124.984C80.2527 117.982 78.9111 110.989 77.4105 103.996L77.3509 103.711C81.9316 102.812 86.2902 101.035 90.1807 98.479L90.3894 98.7642C94.2851 104.783 98.5087 110.586 102.315 116.654C103.955 119.3 105.873 119.969 108.675 119.192C108.616 118.159 107.86 117.618 107.354 116.949C102.345 110.448 97.2963 103.977 92.3273 97.466C92.228 97.3545 92.1253 97.2529 92.0193 97.1611C92.6454 96.689 93.2019 96.2071 93.7982 95.7153C93.8644 95.8137 93.9274 95.8957 93.987 95.9612C100.288 102.983 106.529 110.055 112.78 117.097C114.091 118.552 117.977 119.457 119.687 118.67C119.975 118.525 120.203 118.285 120.332 117.992C121.098 116.29 120.183 112.484 118.693 111.196L97.1075 92.4599C97.611 91.896 98.088 91.3191 98.5386 90.729C98.5717 90.729 98.5882 90.7486 98.5882 90.7486C103.776 94.6433 108.924 98.6265 114.121 102.492C116.318 104.124 118.315 106.032 120.829 107.301C121.664 104.173 120.641 102.265 117.947 100.633C111.885 96.9447 106.042 92.8238 100.089 88.9685L99.91 88.8406C102.454 85.064 104.312 80.7858 105.217 76.1633C105.31 76.1699 105.396 76.183 105.475 76.2026C112.601 77.6582 119.836 78.8483 126.911 80.5595C130.062 81.3365 131.552 80.0481 133.113 77.7369C132.377 77.55 131.801 77.3435 131.205 77.2648C122.936 76.183 114.668 75.1306 106.409 74.0094C106.161 73.9799 105.853 73.9898 105.575 73.9898C105.681 73.1964 105.763 72.3998 105.823 71.5998L106.449 71.7375C115.841 72.2883 125.202 72.9276 134.574 73.5275C136.352 73.6455 140.039 71.2949 140.606 69.7705C140.668 69.5513 140.664 69.3191 140.596 69.1017" fill="white"/>
</svg>