<svg width="60" height="60" viewBox="0 0 188 119" fill="none" xmlns="http://www.w3.org/2000/svg">
    <path d="M128.148 50.983C142.254 50.983 153.555 39.5968 153.555 25.4915C153.555 11.3862 142.254 0 128.148 0C114.043 0 102.657 11.3862 102.657 25.4915C102.657 39.5968 114.043 50.983 128.148 50.983ZM60.1711 50.983C74.2764 50.983 85.5777 39.5968 85.5777 25.4915C85.5777 11.3862 74.2764 0 60.1711 0C46.0658 0 34.6796 11.3862 34.6796 25.4915C34.6796 39.5968 46.0658 50.983 60.1711 50.983ZM60.1711 67.9773C40.3727 67.9773 0.690979 77.919 0.690979 97.7174V110.463C0.690979 115.137 4.5147 118.96 9.18814 118.96H111.154C115.828 118.96 119.651 115.137 119.651 110.463V97.7174C119.651 77.919 79.9695 67.9773 60.1711 67.9773ZM128.148 67.9773C125.684 67.9773 122.88 68.1473 119.906 68.4022C120.076 68.4872 120.161 68.6571 120.246 68.7421C129.933 75.7947 136.646 85.2266 136.646 97.7174V110.463C136.646 113.437 136.051 116.326 135.116 118.96H179.131C183.805 118.96 187.629 115.137 187.629 110.463V97.7174C187.629 77.919 147.947 67.9773 128.148 67.9773Z" fill="white"/>
</svg>